<svg viewBox="0 0 800 680" xmlns="http://www.w3.org/2000/svg" width="800" shape-rendering="crispEdges">
  <defs>
    <style>.px { font-family: 'JetBrains Mono', 'Courier New', monospace; }</style>
  </defs>

  <!-- BACKGROUND -->
  <rect width="800" height="680" fill="#0d1117"/>

  <!-- CORNER BRACKETS -->
  <rect x="8" y="8" width="4" height="28" fill="#2dd4bf" opacity="0.7"/>
  <rect x="8" y="8" width="28" height="4" fill="#2dd4bf" opacity="0.7"/>
  <rect x="788" y="8" width="4" height="28" fill="#2dd4bf" opacity="0.7"/>
  <rect x="764" y="8" width="28" height="4" fill="#2dd4bf" opacity="0.7"/>
  <rect x="8" y="644" width="4" height="28" fill="#2dd4bf" opacity="0.7"/>
  <rect x="8" y="668" width="28" height="4" fill="#2dd4bf" opacity="0.7"/>
  <rect x="788" y="644" width="4" height="28" fill="#2dd4bf" opacity="0.7"/>
  <rect x="764" y="668" width="28" height="4" fill="#2dd4bf" opacity="0.7"/>

  <!-- TITLEBAR -->
  <rect x="0" y="0" width="800" height="44" fill="#080c11"/>
  <rect x="0" y="43" width="800" height="2" fill="#2dd4bf" opacity="0.35"/>
  <rect x="20" y="16" width="10" height="10" fill="#ff5f57"/>
  <rect x="37" y="16" width="10" height="10" fill="#febc2e"/>
  <rect x="54" y="16" width="10" height="10" fill="#28c840"/>
  <text x="400" y="29" text-anchor="middle" class="px" font-size="13" fill="#475569">player_profile.exe</text>

  <!-- ════════════════════════════════════════ -->
  <!-- LEFT PANEL — CHARACTER CARD             -->
  <!-- ════════════════════════════════════════ -->
  <rect x="18" y="58" width="318" height="448" fill="#080c11" stroke="#1e293b" stroke-width="2"/>
  <rect x="18" y="58" width="318" height="3" fill="#2dd4bf" opacity="0.6"/>
  <rect x="18" y="58" width="3" height="448" fill="#2dd4bf" opacity="0.25"/>

  <!-- ══════════════════════════════════════════════ -->
  <!-- CHARACTER — user's design, repositioned +6y   -->
  <!-- Original coords from document shifted y+6     -->
  <!-- so head top = 72, boots bottom = 346          -->
  <!-- horizontally: character spans x=97–257        -->
  <!-- panel center x=177, already centered          -->
  <!-- ══════════════════════════════════════════════ -->

  <!-- HEAD (old flat pixel style, user's version) -->
  <rect x="144" y="94" width="66" height="64" fill="#1e293b"/>
  <!-- Face overlay -->
  <rect x="147" y="96" width="60" height="60" fill="#2dd4bf" opacity="0.15"/>
  <!-- Eyes -->
  <rect x="156" y="108" width="8" height="8" fill="#2dd4bf"/>
  <rect x="188" y="108" width="8" height="8" fill="#2dd4bf"/>

  <!-- Mouth -->
  <rect x="160" y="126" width="4" height="4" fill="#2dd4bf"/>
  <rect x="164" y="130" width="16" height="4" fill="#2dd4bf"/>
  <rect x="180" y="126" width="4" height="4" fill="#2dd4bf"/>

  <!-- TORSO (user's version, shifted y+6) -->
  <rect x="129" y="162" width="96" height="88" fill="#1a4a5e"/>
  <!-- Chest highlight -->
  <rect x="137" y="166" width="80" height="36" fill="#1e5878"/>
  <!-- Belt -->
  <rect x="129" y="242" width="96" height="8" fill="#0d1e2e"/>
  <rect x="169" y="242" width="16" height="8" fill="#f97316" opacity="0.75"/>
  <!-- Belt buckle inner -->
  <rect x="173" y="244" width="8" height="4" fill="#f97316" opacity="0.4"/>

  <!-- LEFT ARM (user's version, shifted y+6) -->
  <rect x="97" y="162" width="32" height="88" fill="#1a4a5e"/>
  <rect x="101" y="166" width="20" height="76" fill="#1e5878"/>
  <!-- Sleeve cuff -->
  <rect x="97" y="238" width="32" height="8" fill="#122e40"/>
  <!-- Wrist/hand skin -->
  <rect x="97" y="246" width="32" height="20" fill="#c8956c"/>
  <rect x="101" y="258" width="24" height="8" fill="#b07450"/>

  <!-- RIGHT ARM (user's version, shifted y+6) -->
  <rect x="225" y="162" width="32" height="88" fill="#1a4a5e"/>
  <rect x="233" y="166" width="20" height="76" fill="#1e5878"/>
  <rect x="225" y="238" width="32" height="8" fill="#122e40"/>
  <rect x="225" y="246" width="32" height="20" fill="#c8956c"/>
  <rect x="229" y="258" width="24" height="8" fill="#b07450"/>

  <!-- LEFT LEG (user's version, shifted y+6) -->
  <rect x="129" y="250" width="44" height="96" fill="#0f2a3e"/>
  <rect x="133" y="254" width="32" height="84" fill="#122e44"/>
  <!-- Knee highlight -->
  <rect x="133" y="290" width="32" height="8" fill="#0f2a3e"/>
  <!-- Boot -->
  <rect x="125" y="338" width="48" height="8" fill="#0a1620"/>

  <!-- RIGHT LEG (user's version, shifted y+6) -->
  <rect x="181" y="250" width="44" height="96" fill="#0f2a3e"/>
  <rect x="185" y="254" width="32" height="84" fill="#122e44"/>
  <rect x="185" y="290" width="32" height="8" fill="#0f2a3e"/>
  <!-- Boot -->
  <rect x="181" y="338" width="48" height="8" fill="#0a1620"/>

  <!-- ── NAME + LEVEL + STATS ── -->
  <rect x="28" y="358" width="298" height="2" fill="#1e293b"/>

  <text x="177" y="382" text-anchor="middle" class="px" font-size="19" fill="#2dd4bf" font-weight="700">Vishmayraj</text>
  <rect x="234" y="366" width="70" height="24" fill="#f97316" opacity="0.12"/>
  <rect x="234" y="366" width="70" height="24" fill="none" stroke="#f97316" stroke-width="2"/>
  <text x="269" y="382" text-anchor="middle" class="px" font-size="12" fill="#f97316" font-weight="700">Lv. 18</text>

  <text x="30" y="412" class="px" font-size="11" fill="#475569">CLASS</text>
  <text x="30" y="431" class="px" font-size="13" fill="#94a3b8">Backend Engineer</text>
  <text x="30" y="455" class="px" font-size="11" fill="#475569">GUILD</text>
  <text x="30" y="474" class="px" font-size="13" fill="#94a3b8">Real-Time · Distributed</text>

  <!-- HP -->
  <text x="30" y="504" class="px" font-size="13" fill="#64748b">HP</text>
  <rect x="64" y="492" width="218" height="16" fill="#0a0e14"/>
  <rect x="64" y="492" width="174" height="16" fill="#2dd4bf" opacity="0.85"/>
  <rect x="85"  y="492" width="2" height="16" fill="#0a0e14" opacity="0.65"/>
  <rect x="107" y="492" width="2" height="16" fill="#0a0e14" opacity="0.65"/>
  <rect x="129" y="492" width="2" height="16" fill="#0a0e14" opacity="0.65"/>
  <rect x="151" y="492" width="2" height="16" fill="#0a0e14" opacity="0.65"/>
  <rect x="173" y="492" width="2" height="16" fill="#0a0e14" opacity="0.65"/>
  <rect x="195" y="492" width="2" height="16" fill="#0a0e14" opacity="0.65"/>
  <rect x="217" y="492" width="2" height="16" fill="#0a0e14" opacity="0.65"/>
  <text x="290" y="505" class="px" font-size="13" fill="#475569">80%</text>

  <!-- MP -->
  <text x="30" y="530" class="px" font-size="13" fill="#64748b">MP</text>
  <rect x="64" y="518" width="218" height="16" fill="#0a0e14"/>
  <rect x="64" y="518" width="218" height="16" fill="#f97316" opacity="0.7"/>
  <rect x="85"  y="518" width="2" height="16" fill="#0a0e14" opacity="0.65"/>
  <rect x="107" y="518" width="2" height="16" fill="#0a0e14" opacity="0.65"/>
  <rect x="129" y="518" width="2" height="16" fill="#0a0e14" opacity="0.65"/>
  <rect x="151" y="518" width="2" height="16" fill="#0a0e14" opacity="0.65"/>
  <rect x="173" y="518" width="2" height="16" fill="#0a0e14" opacity="0.65"/>
  <rect x="195" y="518" width="2" height="16" fill="#0a0e14" opacity="0.65"/>
  <rect x="217" y="518" width="2" height="16" fill="#0a0e14" opacity="0.65"/>
  <text x="290" y="531" class="px" font-size="13" fill="#475569">100%</text>

  <!-- TRAIT -->
  <rect x="28" y="544" width="298" height="2" fill="#1e293b"/>
  <text x="30" y="563" class="px" font-size="12" fill="#f97316">✦  TRAIT</text>
  <text x="30" y="581" class="px" font-size="12" fill="#64748b">Deadlines → +200% Focus Boost</text>

  <!-- ════════════════════════════════════════ -->
  <!-- RIGHT PANEL — QUESTS / INFO             -->
  <!-- ════════════════════════════════════════ -->
  <rect x="354" y="58" width="428" height="448" fill="#080c11" stroke="#1e293b" stroke-width="2"/>
  <rect x="354" y="58" width="428" height="3" fill="#f97316" opacity="0.55"/>
  <rect x="779" y="58" width="3" height="448" fill="#f97316" opacity="0.25"/>

  <!-- ACTIVE QUEST -->
  <text x="370" y="92" class="px" font-size="13" fill="#f97316" font-weight="700">[ ACTIVE QUEST ]</text>
  <rect x="370" y="98" width="398" height="2" fill="#1e2030"/>
  <text x="378" y="122" class="px" font-size="15" fill="#2dd4bf" font-weight="700">→  DVS-Asia</text>
  <text x="378" y="142" class="px" font-size="12" fill="#64748b">real-time disaster analytics pipeline</text>

  <!-- LEARNING PATH -->
  <rect x="370" y="160" width="398" height="2" fill="#1e2030"/>
  <text x="370" y="182" class="px" font-size="13" fill="#f97316" font-weight="700">[ LEARNING PATH ]</text>
  <rect x="370" y="188" width="398" height="2" fill="#1e2030"/>
  <text x="378" y="211" class="px" font-size="13" fill="#94a3b8">▸  Advanced ML</text>
  <text x="378" y="233" class="px" font-size="13" fill="#94a3b8">▸  Data-centric optimization</text>
  <text x="378" y="255" class="px" font-size="13" fill="#94a3b8">▸  ETL architecture</text>

  <!-- PARTY INVITE -->
  <rect x="370" y="272" width="398" height="2" fill="#1e2030"/>
  <text x="370" y="294" class="px" font-size="13" fill="#f97316" font-weight="700">[ PARTY INVITE ]</text>
  <rect x="370" y="300" width="398" height="2" fill="#1e2030"/>
  <text x="378" y="323" class="px" font-size="13" fill="#94a3b8">▸  Distributed systems</text>
  <text x="378" y="345" class="px" font-size="13" fill="#94a3b8">▸  Backend infrastructure</text>
  <text x="378" y="367" class="px" font-size="13" fill="#94a3b8">▸  Analytics pipelines</text>

  <!-- DIALOGUE OPTIONS -->
  <rect x="370" y="384" width="398" height="2" fill="#1e2030"/>
  <text x="370" y="406" class="px" font-size="13" fill="#f97316" font-weight="700">[ DIALOGUE OPTIONS ]</text>
  <rect x="370" y="412" width="398" height="2" fill="#1e2030"/>
  <text x="378" y="435" class="px" font-size="13" fill="#94a3b8">▸  Backend architecture</text>
  <text x="378" y="457" class="px" font-size="13" fill="#94a3b8">▸  Data pipelines</text>
  <text x="378" y="479" class="px" font-size="13" fill="#94a3b8">▸  Geospatial systems</text>
  <text x="378" y="501" class="px" font-size="13" fill="#94a3b8">▸  Hackathon strategy</text>

  <!-- Press E -->
  <rect x="370" y="510" width="398" height="2" fill="#1e2030"/>
  <text x="370" y="528" class="px" font-size="11" fill="#334155">[ Press  E  to interact ]</text>
  <rect x="370" y="532" width="10" height="3" fill="#2dd4bf">
    <animate attributeName="opacity" values="1;0;1" dur="1.2s" repeatCount="indefinite"/>
  </rect>

  <!-- ════════════════════════════════════════ -->
  <!-- BOTTOM PANEL — PROGRESSION              -->
  <!-- ════════════════════════════════════════ -->
  <rect x="18" y="518" width="764" height="152" fill="#080c11" stroke="#1e293b" stroke-width="2"/>
  <rect x="18" y="518" width="764" height="3" fill="#2dd4bf" opacity="0.35"/>

  <text x="30" y="543" class="px" font-size="13" fill="#475569" font-weight="700">// progression</text>

  <!-- Backend Mastery 75% -->
  <text x="30" y="572" class="px" font-size="13" fill="#94a3b8">Backend Mastery</text>
  <rect x="210" y="559" width="490" height="16" fill="#0d1117"/>
  <rect x="210" y="559" width="368" height="16" fill="#2dd4bf" opacity="0.8"/>
  <rect x="259" y="559" width="2" height="16" fill="#0a0e14" opacity="0.7"/>
  <rect x="308" y="559" width="2" height="16" fill="#0a0e14" opacity="0.7"/>
  <rect x="357" y="559" width="2" height="16" fill="#0a0e14" opacity="0.7"/>
  <rect x="406" y="559" width="2" height="16" fill="#0a0e14" opacity="0.7"/>
  <rect x="455" y="559" width="2" height="16" fill="#0a0e14" opacity="0.7"/>
  <rect x="504" y="559" width="2" height="16" fill="#0a0e14" opacity="0.7"/>
  <rect x="553" y="559" width="2" height="16" fill="#0a0e14" opacity="0.7"/>
  <text x="712" y="572" class="px" font-size="13" fill="#2dd4bf">75%</text>

  <!-- System Design 60% -->
  <text x="30" y="602" class="px" font-size="13" fill="#94a3b8">System Design</text>
  <rect x="210" y="589" width="490" height="16" fill="#0d1117"/>
  <rect x="210" y="589" width="294" height="16" fill="#2dd4bf" opacity="0.8"/>
  <rect x="259" y="589" width="2" height="16" fill="#0a0e14" opacity="0.7"/>
  <rect x="308" y="589" width="2" height="16" fill="#0a0e14" opacity="0.7"/>
  <rect x="357" y="589" width="2" height="16" fill="#0a0e14" opacity="0.7"/>
  <rect x="406" y="589" width="2" height="16" fill="#0a0e14" opacity="0.7"/>
  <rect x="455" y="589" width="2" height="16" fill="#0a0e14" opacity="0.7"/>
  <text x="712" y="602" class="px" font-size="13" fill="#2dd4bf">60%</text>

  <!-- Distributed Systems 55% -->
  <text x="30" y="632" class="px" font-size="13" fill="#94a3b8">Distributed Sys</text>
  <rect x="210" y="619" width="490" height="16" fill="#0d1117"/>
  <rect x="210" y="619" width="270" height="16" fill="#f97316" opacity="0.75"/>
  <rect x="259" y="619" width="2" height="16" fill="#0a0e14" opacity="0.7"/>
  <rect x="308" y="619" width="2" height="16" fill="#0a0e14" opacity="0.7"/>
  <rect x="357" y="619" width="2" height="16" fill="#0a0e14" opacity="0.7"/>
  <rect x="406" y="619" width="2" height="16" fill="#0a0e14" opacity="0.7"/>
  <text x="712" y="632" class="px" font-size="13" fill="#f97316">55%</text>

  <!-- Machine Learning 40% -->
  <text x="30" y="662" class="px" font-size="13" fill="#94a3b8">Machine Learning</text>
  <rect x="210" y="649" width="490" height="16" fill="#0d1117"/>
  <rect x="210" y="649" width="196" height="16" fill="#f97316" opacity="0.65"/>
  <rect x="259" y="649" width="2" height="16" fill="#0a0e14" opacity="0.7"/>
  <rect x="308" y="649" width="2" height="16" fill="#0a0e14" opacity="0.7"/>
  <rect x="357" y="649" width="2" height="16" fill="#0a0e14" opacity="0.7"/>
  <text x="712" y="662" class="px" font-size="13" fill="#f97316">40%</text>

</svg>